<?xml version="1.0" standalone="no"?><!DOCTYPE svg PUBLIC "-//W3C//DTD SVG 1.1//EN" "http://www.w3.org/Graphics/SVG/1.1/DTD/svg11.dtd"><svg t="1585015187761" class="icon" viewBox="0 0 1024 1024" version="1.1" xmlns="http://www.w3.org/2000/svg" p-id="23636" xmlns:xlink="http://www.w3.org/1999/xlink" width="200" height="200"><defs><style type="text/css"></style></defs><path d="M333.58482470849293 729.4604422403181c-9.80599566131142 11.031745118975348-21.24632393284141 20.83774078028676-35.138151119699245 29.826570136488897-13.891827186857842 8.171663051092846-27.783654373715684 13.891827186857842-40.858315255464255 17.569075559849622v33.50381850948067c27.375071221161047-8.171663051092846 50.255727764221014-21.24632393284141 68.64196962917993-40.04114895035496v250.8700556685505h33.50381850948067V729.4604422403181h-26.14932176349712zM570.5630531901854 723.7402781045527c-29.417986983934256 0-53.524392984658164 9.80599566131142-71.50205169706244 29.417986983934256-17.977658712404267 19.20340817006819-27.375071221161047 45.35272993356531-27.375071221161047 78.03938213793671h33.50381850948067c0.4085831525546425-25.740738610942472 6.53733044087428-45.35272993356531 17.977658712404267-58.42739081531386 10.623161966420705-13.891827186857842 26.14932176349712-20.429157627732128 46.1698962386746-20.429157627732128 18.794825017513553 0 33.91240166203533 4.90299783065571 44.53556362845603 14.708993491967128 10.623161966420705 9.80599566131142 15.934742949631056 23.28923969561462 15.934742949631056 41.26689840801889 0 18.794825017513553-7.763079898538207 36.36390057736317-22.472073390505336 52.29864352699424-7.763079898538207 8.171663051092846-22.88065654305997 20.02057447517748-45.76131308611994 36.36390057736317-31.052319594152827 21.24632393284141-51.8900603744396 38.815399492691036-63.33038864596958 51.8900603744396-19.61199132262284 21.65490708539605-29.009403831379608 45.76131308611994-29.009403831379608 72.31921800217172h194.4855806160098v-29.826570136488897h-153.21868220799095c5.311580983210352-19.61199132262284 26.557904916051758-42.08406471312817 63.738971798524226-67.00763701896135 30.235153289043545-20.429157627732128 50.255727764221014-36.36390057736317 60.47030657808709-46.98706254378389 18.794825017513553-20.429157627732128 28.60082067882497-43.3098141707921 28.60082067882497-68.64196962917993 0-25.332155458387827-8.988829356202134-46.1698962386746-26.14932176349712-61.696056035751006-17.569075559849622-15.526159797076414-39.63256579780032-23.28923969561462-66.59905386640672-23.28923969561462zM841.7266041115963 723.7402781045527c-27.783654373715684 0-50.255727764221014 7.763079898538207-67.41622017151603 23.697822848169263-17.977658712404267 15.934742949631056-28.60082067882497 37.998233187581754-31.052319594152827 66.19047071385208h33.09523535692604c2.0429157627732115-19.61199132262284 8.58024620364749-34.72956796714462 20.02057447517748-45.35272993356531 11.031745118975348-10.623161966420705 26.14932176349712-15.526159797076414 45.76131308611994-15.526159797076414 18.794825017513553 0 33.91240166203533 4.494414678101067 44.53556362845603 14.300410339412485 9.80599566131142 8.988829356202134 15.117576644521773 21.65490708539605 15.117576644521773 37.998233187581754s-5.311580983210352 29.009403831379608-15.526159797076414 37.998233187581754c-10.214578813866064 8.58024620364749-24.923572305833186 13.07466088174856-44.53556362845603 13.07466088174856h-22.472073390505336v26.14932176349712h23.697822848169263c20.429157627732128 0 35.955317424808534 4.494414678101067 47.395645696338526 14.300410339412485 11.440328271529985 9.80599566131142 17.16049240729498 23.28923969561462 17.16049240729498 40.858315255464255 0 17.16049240729498-6.128747288319638 31.460902746707472-17.569075559849622 42.90123101823745-12.666077729193914 11.848911424084632-29.417986983934256 17.977658712404267-50.255727764221014 17.977658712404267-18.38624186495891 0-33.50381850948067-5.311580983210352-45.76131308611994-15.117576644521773-14.300410339412485-11.848911424084632-22.063490237950695-29.417986983934256-22.88065654305997-52.29864352699424h-33.91240166203533c2.451498915327855 32.686652204371384 13.891827186857842 57.61022451020457 34.72956796714462 74.77071691749956 17.569075559849622 13.891827186857842 40.04114895035496 21.24632393284141 67.82480332407066 21.24632393284141 30.235153289043545 0 54.750142442322094-8.58024620364749 73.54496745983565-25.740738610942472 18.38624186495891-16.751909254740337 27.783654373715684-38.40681634013638 27.783654373715684-64.96472125618814 0-17.16049240729498-4.90299783065571-31.460902746707472-14.708993491967128-42.90123101823745-8.988829356202134-11.440328271529985-22.063490237950695-19.61199132262284-39.22398264524568-24.923572305833186 31.869485899262113-10.623161966420705 47.804228848893175-32.686652204371384 47.804228848893175-65.37330440874277 0-24.514989153278552-8.58024620364749-43.71839732334673-25.332155458387827-58.018807662759215-17.16049240729498-14.300410339412485-40.04114895035496-21.24632393284141-67.82480332407066-21.24632393284141zM35.31912334360385-0.2690682222735177h102.14578813866063v1021.457881386606h-102.14578813866063v-1021.457881386606zM239.6106996209253-0.2690682222735177h102.14578813866063v680.9708569057777h-102.14578813866063V-0.2690682222735177zM443.9022758982464-0.2690682222735177h102.14578813866063v680.9708569057777h-102.14578813866063V-0.2690682222735177zM716.291576277321-0.2690682222735177h102.14578813866063v680.9708569057777h-102.14578813866063V-0.2690682222735177zM852.485428452889-0.2690682222735177h102.14578813866063v680.9708569057777h-102.14578813866063V-0.2690682222735177zM171.51457154711107-0.2690682222735177H205.56263558401804v1021.457881386606h-34.04806403690698v-1021.457881386606zM375.8061478244323-0.2690682222735177H409.8542118613395v680.9708569057777h-34.04806403690698V-0.2690682222735177zM580.0977241017537-0.2690682222735177H614.1457881386607v680.9708569057777h-34.04806403690698V-0.2690682222735177zM648.1938521755673-0.2690682222735177h34.04966006484665v680.9708569057777h-34.04966006484665V-0.2690682222735177z" p-id="23637"></path></svg>