<?xml version="1.0" standalone="no"?><!DOCTYPE svg PUBLIC "-//W3C//DTD SVG 1.1//EN" "http://www.w3.org/Graphics/SVG/1.1/DTD/svg11.dtd"><svg t="1585030715129" class="icon" viewBox="0 0 1024 1024" version="1.1" xmlns="http://www.w3.org/2000/svg" p-id="2633" xmlns:xlink="http://www.w3.org/1999/xlink" width="200" height="200"><defs><style type="text/css"></style></defs><path d="M315.914578 713.289446l0-401.350924L64.67858 512.580215 315.914578 713.289446 315.914578 713.289446zM315.914578 713.289446M959.320397 208.069873c0 28.712949-23.275099 51.988048-51.988048 51.988048L571.409576 260.057921c-28.711925 0-51.987025-23.275099-51.987025-51.988048l0 0c0-28.711925 23.275099-51.988048 51.987025-51.988048l335.921749 0C936.045297 156.082848 959.320397 179.358971 959.320397 208.069873L959.320397 208.069873zM959.320397 815.930127c0 28.711925-23.275099 51.988048-51.988048 51.988048L571.409576 867.918175c-28.711925 0-51.987025-23.276123-51.987025-51.988048l0 0c0-28.712949 23.275099-51.989071 51.987025-51.989071l335.921749 0C936.045297 763.941056 959.320397 787.217179 959.320397 815.930127L959.320397 815.930127zM959.320397 512c0 28.711925-23.275099 51.989071-51.988048 51.989071L571.409576 563.989071c-28.711925 0-51.987025-23.277146-51.987025-51.989071l0 0c0-28.712949 23.275099-51.988048 51.987025-51.988048l335.921749 0C936.045297 460.011952 959.320397 483.288075 959.320397 512L959.320397 512z" p-id="2634"></path></svg>